<?xml version="1.0" encoding="UTF-8"?>
<svg id="Ebene_1" xmlns="http://www.w3.org/2000/svg" version="1.1" viewBox="0 0 580.63 95.76">
  <!-- Generator: Adobe Illustrator 29.8.4, SVG Export Plug-In . SVG Version: 2.1.1 Build 6)  -->
  <defs>
    <style>
      .st0 {
        fill: #769a3d;
      }

      .st1 {
        fill: #626668;
      }
    </style>
  </defs>
  <g>
    <path class="st1" d="M0,77.15V5.15h68.28v8.44H9.71v22.78h55.96v8.44H9.71v32.34H0Z"/>
    <path class="st1" d="M72.97,5.15h8.01v71.99h-8.01V5.15Z"/>
    <path class="st1" d="M145.37,61.68h8.36c-.14,5.98-2.27,10.15-6.39,12.53-4.12,2.38-11.29,3.56-21.52,3.56-8.45,0-14.87-.32-19.26-.98-4.39-.65-7.7-1.75-9.94-3.29-5.11-3.59-7.67-10.67-7.67-21.25,0-7.42,1.08-12.99,3.25-16.71,2.06-3.55,5.03-5.95,8.92-7.2,3.89-1.25,10.38-1.87,19.47-1.87s14.98.46,18.85,1.37c3.87.91,6.96,2.67,9.27,5.28,1.92,2.18,3.23,4.71,3.94,7.6.71,2.89,1.1,7.28,1.17,13.2h-56.29c.21,6.2,1.46,10.46,3.73,12.77,1.53,1.58,3.97,2.65,7.32,3.23s8.81.87,16.38.87c5.72,0,9.91-.26,12.57-.79,2.66-.53,4.65-1.49,5.97-2.9.99-1.09,1.62-2.9,1.86-5.43ZM145,47.17c-.04-4.89-1.35-8.3-3.94-10.24-1.7-1.3-4.09-2.21-7.16-2.72-3.07-.51-7.57-.77-13.5-.77-5.18,0-9.13.24-11.85.71-2.72.48-4.84,1.31-6.36,2.51-2.52,1.94-3.98,5.44-4.37,10.5h47.19Z"/>
  </g>
  <g>
    <path class="st1" d="M321.91,42.11h-8.31c-.07-.91-.11-1.63-.11-2.16,0-5.23,1.99-8.79,5.97-10.69,3.98-1.9,11.44-2.84,22.38-2.84,8.59,0,14.77.39,18.54,1.16,3.76.77,6.71,2.25,8.84,4.43,1.78,1.76,2.93,3.83,3.46,6.22.53,2.39.8,6.57.8,12.54v26.39h-7.95l.16-5.86h-.43c-1.99,2.74-4.37,4.5-7.16,5.29-2.78.79-8.05,1.19-15.78,1.19-8.84,0-14.98-.21-18.42-.63-3.44-.42-6.05-1.3-7.83-2.64-1.77-1.27-3.01-2.78-3.7-4.54-.69-1.76-1.04-4.22-1.04-7.38,0-3.87.52-6.84,1.57-8.91,1.05-2.07,2.81-3.62,5.3-4.64,2.7-1.16,9-1.74,18.9-1.74s17.14.31,20.34.92c3.19.62,5.66,2.1,7.4,4.46h.69v-5.38c0-4.38-.8-7.54-2.4-9.47-1.42-1.72-3.58-2.88-6.47-3.5-2.89-.61-7.63-.92-14.2-.92-8.63,0-14.21.5-16.75,1.5-2.54,1-3.81,3.18-3.81,6.54,0,.18.01.4.01.68ZM342.38,54.31c-6.57,0-11.16.11-13.79.34-2.63.23-4.49.66-5.59,1.29-2.1,1.23-3.14,3.49-3.14,6.79s1.24,5.48,3.73,6.63c2.02.95,8.84,1.42,20.45,1.42,8.48,0,14.1-.54,16.83-1.63,2.73-1.09,4.1-3.3,4.1-6.63s-1.53-5.41-4.58-6.53c-3.05-1.12-9.05-1.69-18-1.69Z"/>
    <path class="st1" d="M438.46,27.09h8.04v37.45c0,7.91-.41,13.89-1.22,17.93-.74,3.8-2.77,6.89-6.07,9.28-2.17,1.55-5.14,2.6-8.92,3.17-3.78.56-9.75.84-17.92.84s-14.72-.53-18.8-1.58c-4.08-1.06-7.12-2.92-9.11-5.59-.96-1.27-1.59-2.51-1.89-3.72-.3-1.21-.45-2.98-.45-5.3h8.2c.18,1.86.53,3.3,1.06,4.3.54,1,1.44,1.86,2.72,2.56,2.8,1.62,8.61,2.42,17.42,2.42,7.6,0,13.12-.32,16.56-.97,3.44-.65,5.86-1.84,7.24-3.56,1.1-1.41,1.85-3.07,2.24-4.98.39-1.92.67-5.42.85-10.52h-.53c-2.2,2.7-4.81,4.46-7.83,5.27-3.02.81-8.63,1.21-16.83,1.21-6.82,0-12.11-.3-15.87-.9-3.76-.6-6.62-1.62-8.58-3.06-2.77-2-4.79-4.66-6.07-7.96-1.28-3.3-1.92-7.52-1.92-12.65,0-11.11,3.44-18.28,10.33-21.51,2.2-1.02,5.04-1.73,8.52-2.14,3.48-.4,8.56-.61,15.24-.61,5.5,0,9.49.16,11.96.47,2.47.32,4.56.93,6.26,1.84,2.1,1.19,3.76,2.77,5.01,4.74h.48l-.11-6.44ZM414.85,33.44c-9.87,0-16.42.81-19.65,2.42-3.94,2-5.91,7.04-5.91,15.12s2.22,13.33,6.65,15.43c2.66,1.26,8.61,1.9,17.84,1.9,10.04,0,16.43-.86,19.16-2.58,1.99-1.26,3.4-3.09,4.23-5.48.83-2.39,1.25-5.78,1.25-10.17s-.48-7.37-1.44-9.59c-.96-2.21-2.59-3.86-4.9-4.95-2.91-1.41-8.66-2.11-17.25-2.11Z"/>
    <path class="st1" d="M510.89,61.68h8.36c-.14,5.98-2.27,10.15-6.39,12.53-4.12,2.38-11.29,3.56-21.52,3.56-8.45,0-14.87-.32-19.26-.98-4.39-.65-7.7-1.75-9.93-3.29-5.11-3.59-7.67-10.67-7.67-21.25,0-7.42,1.08-12.99,3.25-16.71,2.06-3.55,5.03-5.95,8.92-7.2,3.89-1.25,10.38-1.87,19.47-1.87s14.98.46,18.85,1.37c3.87.91,6.96,2.67,9.27,5.28,1.92,2.18,3.23,4.71,3.94,7.6.71,2.89,1.1,7.28,1.17,13.2h-56.29c.21,6.2,1.45,10.46,3.73,12.77,1.53,1.58,3.97,2.65,7.32,3.23,3.35.58,8.81.87,16.37.87,5.72,0,9.91-.26,12.57-.79,2.66-.53,4.65-1.49,5.96-2.9,1-1.09,1.62-2.9,1.86-5.43ZM510.52,47.17c-.03-4.89-1.35-8.3-3.94-10.24-1.71-1.3-4.09-2.21-7.16-2.72-3.07-.51-7.57-.77-13.5-.77-5.18,0-9.13.24-11.85.71-2.72.48-4.84,1.31-6.37,2.51-2.52,1.94-3.98,5.44-4.37,10.5h47.19Z"/>
    <path class="st1" d="M526.66,27.09h8.01v6.76h.53c1.24-2.25,3.14-4.02,5.7-5.32,1.53-.77,3.54-1.31,6.04-1.61,2.5-.3,6.24-.45,11.21-.45s8.67.27,11.1.82c2.43.55,4.52,1.54,6.26,2.98,3.41,2.92,5.11,7.65,5.11,14.2v5.18h-8.18v-3.59c0-2.78-.19-4.88-.56-6.3-.37-1.42-1.04-2.59-2-3.51-2.03-1.86-6.23-2.8-12.63-2.8-9.63,0-15.8,1.24-18.52,3.72-2.72,2.48-4.08,8.12-4.08,16.91v23.08h-8.01V27.09Z"/>
  </g>
  <path class="st0" d="M191.18,69.62c.2,0,.28.04.25.13-.03.09.02.13.15.13.26.26.41.35.44.26.03-.09.05,0,.05.27h-.2v.53h.2c.26,0,.4.13.4.39,0,.18-.03.27-.1.27s-.1.09-.1.26l.89,1.72-.3.26h-.39v.26h.39l-.2.66.2.27.3.79v.39c0,.18-.07.26-.2.26h-.1v.53l.3.92c0,.27.03.49.1.66.06.18.1.44.1.8l.2-.4v1.19c.19.18.23.22.1.13-.13-.09-.03-.05.3.13v.27c.13.17.18.25.15.2-.03-.04.02.11.15.46v.53h.19v.92c-.13,0-.21.05-.25.14-.03.08-.11.13-.25.13h-.79c-.13-.61-.33-1.05-.6-1.32-.26-.26-.49-.61-.69-1.05-.26-.27-.51-.62-.74-1.06-.23-.44-.51-.75-.84-.92v-.27h-.39v-.53c-.2,0-.41-.24-.65-.72-.23-.49-.51-.73-.84-.73v-.66h-.2v-.27c-.27-.18-.53-.51-.79-.99-.26-.48-.53-.81-.79-.99,0-.18-.06-.37-.2-.59-.13-.22-.27-.42-.4-.6-.13-.18-.28-.4-.45-.66-.16-.27-.31-.4-.44-.4v-.39c-.2-.18-.23-.22-.1-.14.13.09.1.04-.1-.13-.13-.18-.21-.31-.25-.4-.03-.09-.12-.22-.25-.4v-.26c-.13-.17-.25-.37-.34-.6-.1-.22-.25-.41-.45-.6v-.26h-.2v-.66c-.33,0-.5-.18-.5-.53-.2-.18-.23-.22-.1-.13.13.09.1.05-.1-.13v-.26c-.2-.18-.26-.25-.2-.2.07.04,0-.11-.2-.46v-.26l-.4-.26-.3-.26v-.66c-.13,0-.17.02-.1.07.07.04.1-.07.1-.33-.33-.18-.51-.37-.54-.6-.03-.22-.22-.5-.54-.85v-.53c-.13,0-.18-.07-.15-.2.03-.13-.05-.28-.25-.46,0-.18-.03-.35-.1-.53-.07-.18-.17-.27-.3-.27l-.79,1.06c-.19.27-.39.51-.59.73-.2.22-.33.38-.4.47-.26.44-.56.84-.89,1.18h-.1c-.07,0-.16.09-.3.27-.13.17-.18.28-.15.33.03.04-.05.16-.24.33v.53l-.49.26h-.4c0,.62-.03.91-.1.86-.06-.05-.16.07-.29.33-.13.26-.23.4-.3.4l-.2.4c-.2.35-.38.64-.55.85-.17.22-.25.55-.25,1h-.49c-.13.17-.26.26-.39.26v.53c-.13.18-.28.33-.45.47-.16.13-.25.28-.25.46-.33.18-.46.29-.39.33.07.05,0,.2-.2.47-.13.17-.29.35-.49.53-.13.18-.23.31-.3.4-.07.09-.17.27-.3.53-.33.18-.56.26-.69.26-.06.09-.12.17-.15.26-.03.09-.08.18-.15.26-.06.18-.1.31-.1.39,0,.18-.08.36-.25.54-.16.17-.31.26-.44.26-.13.18-.23.29-.3.33-.07.05-.16.15-.3.33-.13.18-.18.31-.15.4.03.09-.08.13-.35.13-.13.44-.35.75-.64.92-.3.18-.51.53-.64,1.06l-.4.26c0,.35-.11.6-.34.73-.23.13-.48.2-.74.2,0,.35-.13.53-.39.53,0,.36-.1.64-.3.86-.2.23-.4.34-.59.34-.46.26-.64.52-.54.79.1.27-.08.39-.54.39l-.2.53c-.2.17-.36.28-.49.33-.13.04-.2.24-.2.59-.2,0-.31.04-.35.13-.03.09-.12.22-.25.4v.26c-.2.17-.31.24-.35.2-.03-.04-.05.11-.05.46-.26.18-.4.31-.4.4s-.1.13-.3.13c-.13.27-.46.59-.99.99-.53.4-.86.81-.99,1.26h-.4c-.13,0-.3.24-.49.73-.2.49-.53.82-.99.99,0,.44-.16.66-.49.66-.13.27-.28.42-.45.47-.17.05-.35.15-.54.33-.13.35-.2.62-.2.79,0,.09-.17.22-.5.4v-.27h-.39l-.2-.26h-.29c0-.44-.03-.64-.1-.6-.07.05-.1-.07-.1-.33v-.53c0-.09-.06-.3-.2-.66l-.2-.52v-.93l-.2-.79v-.27c-.26-.35-.51-.77-.74-1.26-.23-.48-.34-.95-.34-1.38,0-.18.03-.26.1-.26h.1c0-.17-.03-.33-.1-.46-.07-.13-.1-.29-.1-.46,0-.27-.12-.48-.35-.66-.23-.18-.34-.4-.34-.66,0-.35-.03-.58-.1-.66-.07-.09-.1-.26-.1-.53v-.27c0-.17.03-.24.1-.19.06.05.1-.11.1-.47.33,0,.53-.04.59-.13.06-.09.16-.13.29-.13h.2c.13,0,.53-.33,1.19-.99.66-.66,1.06-1.08,1.19-1.26.13-.18.26-.4.4-.66.33-.17.56-.35.69-.52.2-.27.4-.44.59-.53.2-.09.36-.31.5-.66.13-.18.38-.46.74-.86.36-.39.61-.68.74-.86.4-.26.69-.53.89-.8.2-.35.3-.57.3-.66,0-.18.1-.26.29-.26.13-.17.26-.35.4-.53.13-.17.3-.27.5-.27,0-.18.08-.33.25-.46.16-.13.31-.29.45-.47.13-.27.2-.35.2-.27l.2-.26c.13,0,.2-.05.2-.13,0-.09.07-.13.2-.13.13-.35.25-.6.35-.73.1-.13.21-.28.35-.46.4-.26.59-.57.59-.92h.49c0-.18.03-.35.1-.53.06-.18.16-.26.29-.26h.69v-.26l-.3.26-.2-.26c.13-.18.31-.38.54-.6.23-.22.35-.42.35-.6l.4.26v-.53l.69-.93h.19v-.53c.2-.17.5-.57.89-1.19.39-.62.66-1.02.79-1.19l.69-.26c0-.27.08-.53.25-.79.16-.27.38-.4.64-.4v-.53c.2-.18.31-.24.35-.2.03.05.05-.06.05-.33h.4v.27l.49-.53-.2-.66c.26,0,.39-.18.39-.53h.4c0-.44.13-.79.4-1.06.26-.27.49-.48.69-.66v-.26c.27-.18.35-.29.25-.33-.1-.04-.01-.07.25-.07v-.26c.2-.18.2-.27,0-.27h.2v-.53c.13,0,.28-.11.44-.33.16-.22.31-.33.44-.33,0-.18.03-.35.1-.52.06-.18.16-.27.29-.27.13-.35.33-.68.59-.99.26-.31.5-.55.69-.73,0-.35.03-.51.1-.46.07.05.1-.02.1-.2s-.03-.26-.1-.26-.1-.09-.1-.27c0-.26-.03-.4-.1-.4-.07,0-.1-.18-.1-.53h-.2v-.53c-.26-.18-.31-.22-.15-.14.16.09.11.05-.15-.13v-.53h-.2v-.66h-.2v-.27h-.2c0-.44-.13-.84-.39-1.19v-.79h-.3v-.66c-.13,0-.3-.24-.5-.73-.2-.48-.3-.81-.3-.99v-.53h-.3v-.53h-.2c0-.44-.13-.66-.39-.66v-.53c0-.18-.03-.27-.1-.27s-.1-.09-.1-.26v-.39c0-.09-.03-.18-.1-.27h-.1v-.53h-.3v-.66h-.2v-.53h-.2v-.26h-.2v-.53h-.2v-.92c-.27-.18-.32-.22-.15-.13.16.09.12.04-.15-.13v-.27c0-.26-.07-.4-.2-.4v-.53h-.2v-.53h-.2v-.66h-.2v-.79c0-.18-.06-.27-.2-.27v-.66l-.49-.26v-.27l-.2-.26c0-.62-.13-1.11-.39-1.46,0-.26-.07-.57-.2-.92-.13-.35-.3-.62-.49-.79v-.66c0-.17-.06-.44-.2-.8l-.2-.53v-.4h-.2c0-.44-.05-.61-.15-.52-.1.08-.15,0-.15-.27s-.03-.44-.1-.53c-.06-.09-.16-.22-.3-.39v-.53h-.19v-1.46h-.2v-.27h-.2v-.92l-.29.39-.2-1.45-.2-.4v-.53c0-.26.13-.46.4-.6.26-.13.49-.2.69-.2v-.4c.13,0,.19-.04.19-.13,0-.08.07-.13.2-.13.33,0,.59.2.79.59.2.4.36.69.5.86v.27l-.4.26v.4h.2c0,.97.23,1.45.69,1.45v.8h.59v-1.46c.26-.18.41-.24.44-.19.03.04.12-.07.25-.34v-1.98l.79.53v.26c.27.17.35.22.25.13-.1-.09-.08-.04.05.14v.66c0,.18.03.26.1.26s.1.09.1.27v.26c0,.18.07.38.2.6.13.22.2.41.2.59v.53c.13,0,.25.11.35.33.1.22.15.42.15.6v.27l.19.53v.66l.2-.27v.8l.2-.27v.79l.2.53c.13.35.2.57.2.66.13.18.25.38.35.59.1.22.21.33.35.33v.53c.13.18.28.46.44.86.16.4.25.68.25.86.33,0,.46.04.39.13-.06.09,0,.13.2.13v.93c.2.17.23.22.1.13-.14-.08-.04-.04.29.13v.53-.26c.13.18.26.44.4.79.07.26.1.48.1.66.13.26.23.44.29.53.07.09.17.31.3.66.13.18.25.42.34.73.1.31.15.55.15.73.13.18.19.18.19,0s.07-.08.2.27c.13.26.18.37.15.33-.03-.04.05.02.25.2v1.46c.33.27.48.49.45.66-.03.18.12.35.44.53v.53h.4c.2,0,.29-.09.29-.27v.53c0,.17-.06.35-.19.52l-.1.13c0,.18.03.31.1.4.06.09.13.13.19.13l.2-.53-.2.27v-.92c.13.17.26.42.4.72.13.31.2.55.2.73v.26c.26.18.31.24.15.2-.17-.04-.15.02.05.2.26.53.43.79.49.79v.53c.13.26.26.4.39.4s.22-.15.25-.46c.03-.31.18-.46.45-.46,0-.53.13-.79.39-.79v-.4c0,.09.07-.09.2-.53.26-.35.49-.62.69-.79.2-.35.36-.64.49-.86.13-.22.33-.33.6-.33v-.66c.26-.35.4-.61.4-.79.2-.18.41-.51.64-.99.23-.48.44-.82.64-.99v-.4l.39-.27v-.53h.3v-.26c.2-.18.33-.42.4-.73.07-.31.2-.46.39-.46v-.53c.26-.18.33-.24.2-.2-.13.05-.13-.11,0-.46l.29-.26c.13,0,.2-.09.2-.27v-.53h.2v-.4c.2,0,.29-.04.29-.13s.13-.22.4-.4v-.27h.2v-.92h.2v-.27l.3-.26.3-.26c0-.44.11-.77.34-.99.23-.22.41-.46.54-.73h.2v-.66c.13-.18.21-.31.25-.39.03-.09.12-.22.25-.4v-.53c.2-.18.28-.2.25-.06-.03.13-.05.02-.05-.33h.2l.2-.8.5-.26v-.66l.2-.26v-.27c.33-.18.43-.26.3-.26s-.1-.09.1-.27c0-.36.14-.73.44-1.12.3-.4.44-.81.44-1.26h.2c0-.26.08-.57.25-.92.16-.35.31-.62.45-.8.13-.35.26-.53.39-.53v-.66h.2v-.53l.2.27v-.53h.2v-.26l.3-.4v-.53h.2v-.53h.2v-.66h.19v-.27c.13-.17.2-.22.2-.13v-.66c0-.35.03-.49.1-.4.06.08.1-.09.1-.53h.3c0-.27.07-.44.2-.53.13-.09.2-.31.2-.66v-.27h.2v-.26c.13-.26.16-.37.1-.33-.07.04-.03-.02.1-.2v-.66h.3v-.27c0-.17.06-.26.2-.26,0-.62.13-1.1.39-1.45v-.27c0-.17.03-.22.1-.13.07.09.1.04.1-.13v-.66c0-.88.13-1.46.39-1.72.26-.26.56-.61.89-1.06l.49.26c0-.09.06.09.2.53.13.18.23.38.29.59.06.22.17.33.3.33v.27c0,.26.05.37.15.33.1-.04.15.02.15.19v.66c.2,0,.38.29.54.86.16.57.48.95.94,1.12v.53h.2v1.19c.26,0,.4.09.4.26h.3v.93h.2c0,.44.05.71.15.8.1.09.25.26.44.53,0,.35.08.64.25.86.16.22.31.42.44.6h-.2v.92c-.26.18-.36.26-.3.26.13,0,.07.09-.2.27v.26h-.2v.66h-.2v.8c-.2,0-.3.09-.3.26,0,.09-.13.22-.39.4v.53h-.2v.27c-.13.18-.31.48-.54.92-.23.44-.35.8-.35,1.06h-.19v.4c-.2.18-.3.31-.3.4s-.1.22-.3.4v.93l-.2-.27v.53h-.3v.53l-.2-.26v.53h-.2v1.19l-.2-.26v.53c-.26,0-.4.22-.4.66l-.29-.27v.8c-.2.17-.22.22-.05.13.16-.09.11-.05-.15.13l-.2,1.19-.2-.53v1.06l-.19-.26v.26h-.3c0,.44-.02.62-.05.53-.03-.09-.14.05-.34.4-.13.17-.17.29-.1.33.07.04.03.2-.1.46-.19.18-.28.24-.25.2.03-.04-.02.11-.15.46-.13.18-.21.31-.25.39-.03.09-.11.14-.25.14,0,.18-.07.44-.2.79-.13.35-.26.66-.4.93-.26.53-.56.93-.89,1.19v.26c-.2.44-.46.97-.79,1.58-.33.62-.49,1.24-.49,1.85l-.2-.26v.26h-.19v.93c-.33.18-.43.22-.3.13.13-.09.07-.04-.2.14v.53h-.19v.27c-.13.18-.45.64-.94,1.39-.49.75-.74,1.25-.74,1.52v.26c0,.35-.07.53-.2.53-.06,0-.16.13-.3.4h-.39v.53c0-.09-.07,0-.2.26h-.3v.66c-.2.18-.26.26-.2.26s0,.09-.2.27l-.19.26c0-.09-.07.04-.2.4-.13.26-.18.42-.15.46.03.05-.08.16-.34.33-.13.17-.23.29-.3.33-.06.04-.1.24-.1.59l-.2.26c.07,0,0,.09-.2.26v.54c0,.17-.13.38-.4.59-.26.22-.49.42-.69.6v.26c-.26,0-.38.07-.35.2.04.13-.08.38-.35.72v.27c-.2.27-.26.37-.2.33.06-.04,0,.02-.2.2v.53c0-.09-.07-.05-.2.13v.26c-.53.26-.84.66-.94,1.19-.1.53-.31.8-.64.8,0,.26-.06.4-.2.4s-.19.17-.19.52c0,.18.13.44.39.8v.26c.26.18.35.29.25.33-.1.05-.02.16.25.33v.27l.2.26v.27h.2v.27h.19v.66l.3-.26v.53c0,.18.03.22.1.13.07-.09.16-.04.3.14v.39c0,.18.07.27.2.27.13.26.23.44.3.53.06.08.1.35.1.79v.4c.33.18.47.31.44.39-.03.09.12.13.44.13v.79c.33.35.54.82.64,1.39.1.57.31.99.64,1.25v-.53h.2v1.06c.32.17.54.48.64.92.1.44.32.84.64,1.19l.3.53c.13.18.26.38.39.6.13.22.2.42.2.59v.53l.5-.27v-.53h-.3v-.66h.3c0,.18.03.35.1.53.07.18.1.39.1.66v.53l-.2.4h-.69ZM165.97,65.78h.2v-.26h-.2v.26ZM170.91,57.72h-.2v.26h.2v-.26ZM171.61,58.38h-.49v.53h.49v-.53ZM172.4,26.64c-.2,0-.36-.2-.49-.59-.13-.4-.3-.69-.49-.86l.19.8c.2.17.3.48.3.93s.16.75.49.92v-1.19ZM175.07,33.52c0,.53.2.92.59,1.19.13.26.31.73.54,1.38.23.67.35,1.17.35,1.53.2.17.38.59.54,1.26.16.66.48.99.94.99v.93l.4.53c.2,0,.29-.09.29-.27-.13-.09-.23-.22-.29-.4-.13-.18-.2-.35-.2-.53v-.27c0-.18-.06-.35-.2-.53v-.26l-.19-.39v-.27h-.2l-.2-.79h-.3v-.66c-.13-.17-.34-.62-.64-1.32-.3-.7-.51-1.24-.64-1.58-.13-.27-.23-.49-.3-.66-.06-.17-.16-.39-.29-.66-.13-.17-.18-.24-.15-.2.03.05-.08-.11-.35-.46,0-.35-.13-.53-.39-.53v.53h.2c0,.62.05.9.15.86.1-.04.21.15.35.6M176.75,45.68v.52c.13,0,.25.16.34.47.1.31.22.46.35.46s.2-.04.2-.13c0-.18.07-.26.2-.26-.13-.35-.26-.62-.4-.8-.13-.35-.25-.5-.35-.46-.1.05-.15-.11-.15-.46v-.53c-.13-.18-.25-.46-.35-.86-.1-.4-.28-.6-.54-.6,0,.27.08.53.25.8.16.26.24.48.24.66v.79h.2v.4ZM179.32,42.78c-.13-.18-.2-.22-.2-.13v-.53c-.13,0-.18-.04-.15-.13.03-.09-.05-.22-.25-.4v1.45c.2.18.26.33.2.47-.07.13.06.29.39.46,0,.18-.03.22-.1.13-.07-.09-.03-.13.1-.13h.2l-.2-1.19ZM183.47,61.82c0,.35.13.61.4.79v.27c.13,0,.26.12.39.39.13.27.2.53.2.79h.49v.4c0-.09.07-.05.2.13v.4l.2.53h.69c0-.44-.12-.73-.35-.86-.23-.13-.41-.42-.54-.86v.26c-.13-.35-.36-.53-.69-.53v-.66l-.39-.27c.13-.26.13-.31,0-.13-.13.18-.2.05-.2-.4l-.4-.26ZM185.84,63.27h-.3v.26h.3v-.26ZM186.04,64.6h.1l.1-.26v-.13c0,.08-.07.04-.2-.14h-.2l.2.53ZM186.44,66.45c.13.17.21.31.25.39.03.09.18.13.45.13v-.26h-.5v-.26h-.2ZM188.22,43.97l.2-.4h-.2v.4ZM190.99,39.34h-.2v.27h.2v-.27ZM191.38,71.6v-.66h.5v.39l-.5.27Z"/>
  <path class="st0" d="M247.73,69.62c.19,0,.28.04.24.13-.03.09.02.13.15.13.26.26.41.35.44.26.03-.09.05,0,.05.27h-.2v.53h.2c.26,0,.4.13.4.39,0,.18-.03.27-.1.27s-.1.09-.1.26l.89,1.72-.3.26h-.4v.26h.4l-.2.66.2.27.3.79v.39c0,.18-.07.26-.2.26h-.1v.53l.3.92c0,.27.03.49.1.66.06.18.1.44.1.8l.2-.4v1.19c.2.18.23.22.1.13-.13-.09-.03-.05.3.13v.27c.13.17.18.25.15.2-.03-.04.02.11.15.46v.53h.2v.92c-.14,0-.21.05-.25.14-.03.08-.11.13-.24.13h-.79c-.13-.61-.33-1.05-.59-1.32-.26-.26-.5-.61-.69-1.05-.26-.27-.51-.62-.74-1.06-.23-.44-.51-.75-.84-.92v-.27h-.39v-.53c-.2,0-.41-.24-.64-.72-.23-.49-.51-.73-.84-.73v-.66h-.2v-.27c-.27-.18-.53-.51-.79-.99-.27-.48-.52-.81-.79-.99,0-.18-.06-.37-.2-.59-.13-.22-.27-.42-.4-.6-.13-.18-.28-.4-.44-.66-.16-.27-.31-.4-.44-.4v-.39c-.2-.18-.23-.22-.1-.14.13.09.1.04-.1-.13-.13-.18-.21-.31-.25-.4-.03-.09-.12-.22-.25-.4v-.26c-.13-.17-.25-.37-.35-.6-.1-.22-.25-.41-.45-.6v-.26h-.2v-.66c-.33,0-.49-.18-.49-.53-.2-.18-.23-.22-.1-.13.13.09.1.05-.1-.13v-.26c-.2-.18-.26-.25-.2-.2.07.04,0-.11-.19-.46v-.26l-.39-.26-.3-.26v-.66c-.13,0-.16.02-.1.07.07.04.1-.07.1-.33-.33-.18-.51-.37-.54-.6-.03-.22-.21-.5-.54-.85v-.53c-.13,0-.18-.07-.15-.2.03-.13-.05-.28-.25-.46,0-.18-.03-.35-.1-.53-.07-.18-.16-.27-.29-.27l-.79,1.06c-.2.27-.4.51-.59.73-.2.22-.33.38-.39.47-.26.44-.56.84-.89,1.18h-.1c-.06,0-.16.09-.29.27-.13.17-.18.28-.15.33.03.04-.05.16-.25.33v.53l-.49.26h-.4c0,.62-.03.91-.1.86-.07-.05-.16.07-.3.33-.13.26-.23.4-.3.4l-.19.4c-.2.35-.38.64-.54.85-.16.22-.25.55-.25,1h-.49c-.13.17-.26.26-.39.26v.53c-.13.18-.28.33-.45.47-.16.13-.24.28-.24.46-.33.18-.46.29-.39.33.07.05,0,.2-.2.47-.14.17-.3.35-.49.53-.13.18-.23.31-.3.4-.07.09-.17.27-.3.53-.33.18-.56.26-.69.26-.06.09-.11.17-.15.26-.03.09-.08.18-.15.26-.06.18-.1.31-.1.39,0,.18-.08.36-.25.54-.16.17-.31.26-.44.26-.13.18-.23.29-.29.33-.06.05-.16.15-.3.33-.13.18-.18.31-.14.4.03.09-.08.13-.35.13-.13.44-.34.75-.64.92-.3.18-.51.53-.64,1.06l-.4.26c0,.35-.11.6-.34.73-.23.13-.48.2-.75.2,0,.35-.13.53-.39.53,0,.36-.1.64-.3.86-.19.23-.39.34-.59.34-.46.26-.64.52-.54.79.1.27-.08.39-.54.39l-.2.53c-.2.17-.36.28-.49.33-.13.04-.2.24-.2.59-.19,0-.31.04-.34.13-.03.09-.11.22-.25.4v.26c-.2.17-.31.24-.34.2-.04-.04-.05.11-.05.46-.26.18-.39.31-.39.4s-.1.13-.3.13c-.13.27-.46.59-.99.99-.53.4-.86.81-.99,1.26h-.4c-.13,0-.29.24-.5.73-.2.49-.53.82-.99.99,0,.44-.16.66-.49.66-.13.27-.28.42-.45.47-.16.05-.35.15-.54.33-.13.35-.2.62-.2.79,0,.09-.16.22-.49.4v-.27h-.4l-.2-.26h-.3c0-.44-.03-.64-.1-.6-.07.05-.1-.07-.1-.33v-.53c0-.09-.06-.3-.19-.66l-.2-.52v-.93l-.2-.79v-.27c-.26-.35-.51-.77-.74-1.26-.23-.48-.35-.95-.35-1.38,0-.18.03-.26.1-.26h.1c0-.17-.03-.33-.1-.46-.06-.13-.1-.29-.1-.46,0-.27-.11-.48-.34-.66-.23-.18-.35-.4-.35-.66,0-.35-.03-.58-.1-.66-.07-.09-.1-.26-.1-.53v-.27c0-.17.03-.24.1-.19.07.05.1-.11.1-.47.33,0,.53-.04.59-.13.06-.09.17-.13.3-.13h.2c.13,0,.53-.33,1.19-.99.66-.66,1.05-1.08,1.19-1.26.13-.18.26-.4.39-.66.33-.17.56-.35.69-.52.2-.27.39-.44.59-.53.2-.09.36-.31.49-.66.13-.18.38-.46.74-.86.36-.39.61-.68.74-.86.4-.26.69-.53.89-.8.2-.35.29-.57.29-.66,0-.18.1-.26.3-.26.13-.17.27-.35.39-.53.13-.17.3-.27.49-.27,0-.18.08-.33.25-.46.16-.13.31-.29.44-.47.13-.27.2-.35.2-.27l.2-.26c.13,0,.2-.05.2-.13,0-.09.06-.13.2-.13.13-.35.25-.6.34-.73.1-.13.22-.28.35-.46.39-.26.59-.57.59-.92h.49c0-.18.03-.35.1-.53.06-.18.16-.26.29-.26h.69v-.26l-.29.26-.2-.26c.13-.18.31-.38.54-.6.23-.22.35-.42.35-.6l.39.26v-.53l.69-.93h.2v-.53c.2-.17.5-.57.89-1.19.39-.62.66-1.02.79-1.19l.69-.26c0-.27.08-.53.25-.79.16-.27.38-.4.65-.4v-.53c.19-.18.31-.24.34-.2.03.05.05-.06.05-.33h.4v.27l.49-.53-.19-.66c.26,0,.4-.18.4-.53h.4c0-.44.13-.79.39-1.06.26-.27.49-.48.69-.66v-.26c.27-.18.34-.29.24-.33-.1-.04-.01-.07.25-.07v-.26c.2-.18.2-.27,0-.27h.2v-.53c.13,0,.28-.11.44-.33.16-.22.31-.33.44-.33,0-.18.04-.35.1-.52.06-.18.16-.27.3-.27.13-.35.33-.68.59-.99.27-.31.5-.55.69-.73,0-.35.03-.51.1-.46.07.05.1-.02.1-.2s-.03-.26-.1-.26c-.06,0-.1-.09-.1-.27,0-.26-.03-.4-.1-.4s-.1-.18-.1-.53h-.2v-.53c-.26-.18-.31-.22-.15-.14.17.09.12.05-.15-.13v-.53h-.19v-.66h-.2v-.27h-.2c0-.44-.13-.84-.4-1.19v-.79h-.29v-.66c-.13,0-.29-.24-.5-.73-.2-.48-.29-.81-.29-.99v-.53h-.29v-.53h-.2c0-.44-.13-.66-.39-.66v-.53c0-.18-.03-.27-.1-.27s-.1-.09-.1-.26v-.39c0-.09-.04-.18-.1-.27h-.1v-.53h-.29v-.66h-.2v-.53h-.2v-.26h-.2v-.53h-.19v-.92c-.26-.18-.31-.22-.15-.13.16.09.12.04-.14-.13v-.27c0-.26-.07-.4-.2-.4v-.53h-.2v-.53h-.2v-.66h-.19v-.79c0-.18-.07-.27-.2-.27v-.66l-.49-.26v-.27l-.2-.26c0-.62-.13-1.11-.39-1.46,0-.26-.07-.57-.2-.92-.13-.35-.3-.62-.49-.79v-.66c0-.17-.07-.44-.2-.8l-.2-.53v-.4h-.2c0-.44-.05-.61-.15-.52-.1.08-.15,0-.15-.27s-.03-.44-.1-.53c-.07-.09-.16-.22-.3-.39v-.53h-.2v-1.46h-.2v-.27h-.2v-.92l-.3.39-.2-1.45-.19-.4v-.53c0-.26.13-.46.39-.6.26-.13.49-.2.69-.2v-.4c.13,0,.2-.04.2-.13,0-.08.07-.13.2-.13.33,0,.59.2.79.59.2.4.36.69.49.86v.27l-.39.26v.4h.2c0,.97.23,1.45.69,1.45v.8h.59v-1.46c.27-.18.41-.24.44-.19.03.04.12-.07.25-.34v-1.98l.79.53v.26c.26.17.34.22.24.13-.1-.09-.08-.04.05.14v.66c0,.18.03.26.1.26s.09.09.09.27v.26c0,.18.07.38.2.6.13.22.2.41.2.59v.53c.13,0,.25.11.35.33.1.22.15.42.15.6v.27l.2.53v.66l.2-.27v.8l.2-.27v.79l.2.53c.13.35.2.57.2.66.13.18.24.38.34.59.1.22.21.33.35.33v.53c.13.18.28.46.44.86.16.4.25.68.25.86.33,0,.46.04.4.13-.07.09,0,.13.2.13v.93c.2.17.23.22.1.13-.13-.08-.03-.04.29.13v.53-.26c.13.18.27.44.4.79.07.26.1.48.1.66.13.26.23.44.29.53.07.09.17.31.3.66.13.18.25.42.35.73.1.31.14.55.14.73.14.18.2.18.2,0s.07-.08.2.27c.13.26.18.37.15.33-.03-.04.04.02.24.2v1.46c.33.27.48.49.45.66-.03.18.11.35.44.53v.53h.39c.2,0,.29-.09.29-.27v.53c0,.17-.06.35-.2.52l-.1.13c0,.18.03.31.1.4.06.09.13.13.2.13l.2-.53-.2.27v-.92c.13.17.27.42.4.72.13.31.2.55.2.73v.26c.26.18.31.24.14.2-.17-.04-.14.02.05.2.26.53.43.79.5.79v.53c.13.26.26.4.39.4s.21-.15.25-.46c.03-.31.18-.46.45-.46,0-.53.13-.79.39-.79v-.4c0,.09.07-.09.2-.53.26-.35.49-.62.69-.79.19-.35.36-.64.49-.86.13-.22.33-.33.59-.33v-.66c.26-.35.39-.61.39-.79.2-.18.41-.51.64-.99.23-.48.45-.82.65-.99v-.4l.39-.27v-.53h.3v-.26c.2-.18.33-.42.4-.73.07-.31.2-.46.4-.46v-.53c.26-.18.33-.24.2-.2-.13.05-.13-.11,0-.46l.3-.26c.13,0,.2-.09.2-.27v-.53h.2v-.4c.2,0,.29-.04.29-.13s.13-.22.39-.4v-.27h.2v-.92h.2v-.27l.29-.26.3-.26c0-.44.11-.77.35-.99.23-.22.41-.46.54-.73h.19v-.66c.13-.18.22-.31.25-.39.03-.09.11-.22.25-.4v-.53c.2-.18.28-.2.25-.06-.03.13-.05.02-.05-.33h.2l.19-.8.5-.26v-.66l.2-.26v-.27c.33-.18.43-.26.3-.26s-.1-.09.1-.27c0-.36.15-.73.44-1.12.3-.4.45-.81.45-1.26h.2c0-.26.08-.57.25-.92.16-.35.31-.62.44-.8.13-.35.27-.53.4-.53v-.66h.2v-.53l.2.27v-.53h.2v-.26l.3-.4v-.53h.2v-.53h.2v-.66h.2v-.27c.13-.17.2-.22.2-.13v-.66c0-.35.03-.49.1-.4.06.08.1-.09.1-.53h.3c0-.27.07-.44.2-.53.13-.09.2-.31.2-.66v-.27h.19v-.26c.13-.26.16-.37.1-.33-.07.04-.03-.02.1-.2v-.66h.3v-.27c0-.17.06-.26.2-.26,0-.62.13-1.1.39-1.45v-.27c0-.17.03-.22.1-.13.07.09.1.04.1-.13v-.66c0-.88.13-1.46.4-1.72.26-.26.56-.61.89-1.06l.49.26c0-.09.07.09.2.53.13.18.23.38.3.59.07.22.16.33.3.33v.27c0,.26.05.37.15.33.1-.04.15.02.15.19v.66c.2,0,.38.29.54.86.17.57.48.95.94,1.12v.53h.2v1.19c.26,0,.39.09.39.26h.3v.93h.2c0,.44.05.71.15.8.1.09.25.26.45.53,0,.35.08.64.25.86.16.22.31.42.44.6h-.2v.92c-.26.18-.36.26-.3.26.13,0,.06.09-.2.27v.26h-.2v.66h-.2v.8c-.2,0-.3.09-.3.26,0,.09-.13.22-.4.4v.53h-.2v.27c-.13.18-.31.48-.54.92-.23.44-.34.8-.34,1.06h-.2v.4c-.19.18-.29.31-.29.4s-.1.22-.3.4v.93l-.2-.27v.53h-.3v.53l-.19-.26v.53h-.2v1.19l-.2-.26v.53c-.26,0-.39.22-.39.66l-.3-.27v.8c-.2.17-.22.22-.05.13.16-.09.11-.05-.15.13l-.2,1.19-.2-.53v1.06l-.2-.26v.26h-.3c0,.44-.02.62-.05.53-.03-.09-.15.05-.35.4-.13.17-.17.29-.1.33.07.04.03.2-.1.46-.2.18-.28.24-.25.2.03-.04-.01.11-.15.46-.13.18-.22.31-.25.39-.03.09-.12.14-.25.14,0,.18-.06.44-.19.79-.13.35-.27.66-.4.93-.26.53-.56.93-.89,1.19v.26c-.2.44-.46.97-.79,1.58-.33.62-.5,1.24-.5,1.85l-.2-.26v.26h-.2v.93c-.33.18-.43.22-.29.13.13-.09.07-.04-.2.14v.53h-.2v.27c-.13.18-.44.64-.94,1.39-.49.75-.74,1.25-.74,1.52v.26c0,.35-.06.53-.2.53-.06,0-.16.13-.3.4h-.39v.53c0-.09-.06,0-.2.26h-.3v.66c-.2.18-.27.26-.2.26.07,0,0,.09-.19.27l-.2.26c0-.09-.06.04-.2.4-.13.26-.18.42-.14.46.03.05-.09.16-.35.33-.13.17-.23.29-.3.33-.06.04-.1.24-.1.59l-.2.26c.07,0,0,.09-.2.26v.54c0,.17-.13.38-.4.59-.27.22-.49.42-.69.6v.26c-.26,0-.38.07-.35.2.03.13-.08.38-.35.72v.27c-.2.27-.26.37-.2.33.07-.04,0,.02-.2.2v.53c0-.09-.07-.05-.2.13v.26c-.53.26-.84.66-.94,1.19-.1.53-.31.8-.64.8,0,.26-.07.4-.2.4s-.2.17-.2.52c0,.18.13.44.4.8v.26c.27.18.35.29.25.33-.1.05-.02.16.25.33v.27l.2.26v.27h.2v.27h.2v.66l.3-.26v.53c0,.18.03.22.1.13.06-.09.16-.04.29.14v.39c0,.18.07.27.2.27.13.26.23.44.3.53.07.08.1.35.1.79v.4c.33.18.48.31.45.39-.04.09.11.13.45.13v.79c.33.35.54.82.64,1.39.1.57.32.99.64,1.25v-.53h.2v1.06c.33.17.54.48.64.92.1.44.31.84.64,1.19l.3.53c.13.18.26.38.4.6.13.22.19.42.19.59v.53l.5-.27v-.53h-.29v-.66h.29c0,.18.03.35.1.53.07.18.1.39.1.66v.53l-.2.4h-.69ZM222.52,65.78h.2v-.26h-.2v.26ZM227.46,57.72h-.2v.26h.2v-.26ZM228.16,58.38h-.49v.53h.49v-.53ZM228.95,26.64c-.2,0-.36-.2-.5-.59-.13-.4-.29-.69-.49-.86l.2.8c.2.17.29.48.29.93s.17.75.5.92v-1.19ZM231.61,33.52c0,.53.2.92.6,1.19.13.26.31.73.54,1.38.23.67.34,1.17.34,1.53.2.17.38.59.54,1.26.16.66.48.99.94.99v.93l.39.53c.2,0,.29-.09.29-.27-.13-.09-.23-.22-.29-.4-.13-.18-.2-.35-.2-.53v-.27c0-.18-.06-.35-.19-.53v-.26l-.2-.39v-.27h-.2l-.2-.79h-.3v-.66c-.13-.17-.34-.62-.64-1.32-.29-.7-.51-1.24-.64-1.58-.13-.27-.23-.49-.3-.66-.06-.17-.16-.39-.29-.66-.13-.17-.18-.24-.15-.2.03.05-.08-.11-.35-.46,0-.35-.13-.53-.39-.53v.53h.2c0,.62.05.9.15.86.1-.04.21.15.34.6M233.3,45.68v.52c.13,0,.24.16.34.47.1.31.21.46.35.46s.2-.04.2-.13c0-.18.07-.26.2-.26-.13-.35-.26-.62-.39-.8-.13-.35-.25-.5-.35-.46-.1.05-.15-.11-.15-.46v-.53c-.13-.18-.25-.46-.34-.86-.1-.4-.28-.6-.54-.6,0,.27.08.53.24.8.16.26.25.48.25.66v.79h.2v.4ZM235.87,42.78c-.14-.18-.2-.22-.2-.13v-.53c-.13,0-.18-.04-.15-.13.03-.09-.05-.22-.25-.4v1.45c.2.18.27.33.2.47-.06.13.07.29.4.46,0,.18-.03.22-.1.13-.07-.09-.04-.13.1-.13h.19l-.19-1.19ZM240.02,61.82c0,.35.13.61.39.79v.27c.13,0,.26.12.4.39.13.27.2.53.2.79h.49v.4c0-.09.07-.05.2.13v.4l.2.53h.69c0-.44-.11-.73-.34-.86-.23-.13-.41-.42-.54-.86v.26c-.13-.35-.37-.53-.69-.53v-.66l-.4-.27c.13-.26.13-.31,0-.13-.13.18-.2.05-.2-.4l-.39-.26ZM242.39,63.27h-.3v.26h.3v-.26ZM242.59,64.6h.1l.1-.26v-.13c0,.08-.07.04-.2-.14h-.2l.2.53ZM242.99,66.45c.13.17.22.31.25.39.03.09.18.13.45.13v-.26h-.49v-.26h-.2ZM244.76,43.97l.2-.4h-.2v.4ZM247.53,39.34h-.19v.27h.19v-.27ZM247.93,71.6v-.66h.5v.39l-.5.27Z"/>
  <path class="st0" d="M278.85,13.99v.93c.25.18.39.24.42.2.03-.04.05.11.05.46v.66l.21,7.01.21,7.27v3.04c-.07,0-.17.15-.3.46-.14.31-.3.64-.5,1-.2.35-.38.66-.55.92-.17.27-.28.4-.35.4v.92c-.46,0-.72-.19-.79-.59-.07-.4-.1-.95-.1-1.65v-.53c0,.09-.07-.05-.2-.4l-.79,1.59v3.84l-.5-.26v1.46c-.13.44-.23.84-.29,1.19-.13.35-.21.71-.25,1.06-.03.35-.08.66-.15.92l-.4,3.58v3.18c0,.88.07,1.55.2,1.99l-.2.66v1.86c0,.35-.08.99-.26,1.92-.17.92-.26,1.56-.26,1.92l-.72,8.87v1.59l-.2,5.69c0,.44.23.65.69.65h.98c.91,0,1.93-.37,3.04-1.12,1.11-.75,2.39-1.13,3.84-1.13v-.26h.59c.33,0,.76-.22,1.28-.66h.2c.72,0,1.35-.22,1.88-.66h.99l.69-.66h.5c.73,0,1.32-.11,1.78-.33.46-.22,1.15-.33,2.08-.33h.4c.33,0,.48-.04.44-.14-.03-.09.15-.13.55-.13h1.87l.99-.55h.2l2.17.13h5.73c.73.53,1.43,1.46,2.13,2.78.69,1.32,1.3,2.56,1.83,3.71.13.26.39.72.79,1.38.4.66.84,1.33,1.34,1.99.49.66.97,1.28,1.43,1.85.46.58.79.95.99,1.13v.53c0,.18.08.46.25.86.16.4.25.77.25,1.13-.53,0-.76.04-.69.13.06.09-.03-.05-.3-.41-.33,0-.6-.07-.79-.21-.2-.14-.56-.3-1.09-.48h-2.17c-.33,0-.51-.1-.55-.31-.03-.2-.18-.31-.44-.31-.2,0-.36-.04-.5-.13,0-.09-.03-.15-.1-.2-.07-.04-.23-.07-.5-.07-.4,0-.58-.02-.54-.06.03-.05-.11-.07-.44-.07l-.69-.39-6.23.92-5.44.87c.13-.44.36-.66.69-.66h.5c.06-.09.24-.19.54-.33.3-.13.61-.26.94-.4.33-.13.63-.24.89-.33.27-.08.43-.13.49-.13h1.68v-.27h1.19c.2,0,.38-.07.54-.2.16-.13.38-.29.64-.47h.5c.33,0,.49-.35.49-1.06h-2.37l-5.04.66h-.49c-.13.09-.55.27-1.24.53-.69.27-1.44.55-2.23.86-.79.31-1.54.58-2.23.8-.69.22-1.07.33-1.14.33h-.29c-.6,0-.99.18-1.19.55-.19.37-.66.55-1.38.55h-.4c.07,0,.03.09-.1.26-.72.18-1.43.48-2.12.92-.69.43-1.4.65-2.13.65v.65h-.79c-.26,0-.43.05-.49.14-.07.09-.11.16-.15.21-.03.05-.1.11-.2.2-.1.09-.28.14-.55.14v.89h.89c.65,0,1.35-.21,2.07-.65.73-.44,1.42-.66,2.08-.66h.39l1.19-.66,2.37-1.2h1.19c.26,0,.51-.15.74-.45.23-.3.48-.45.74-.45l.89-.07c.33,0,.48-.06.45-.17-.03-.12.15-.17.54-.17h1.19c-.13.51-.23.77-.29.77-.07,0-.3.09-.69.25h-.2c-.86,0-1.85.31-2.97.93-1.12.62-2.04.93-2.77.93-.26,0-.39.23-.39.69-.53,0-1.17.17-1.93.53-.76.35-1.5.72-2.22,1.12-.73.4-1.39.75-1.98,1.05-.59.31-.95.46-1.08.46h-1.18c-.13,0-.45-.22-.94-.66-.49-.44-.87-.75-1.13-.93h-1.29c-.72-.7-1.35-1.21-1.87-1.51-.53-.31-1.05-.95-1.58-1.92-.52-.7-1.09-1.34-1.68-1.92-.59-.57-1.08-1.21-1.48-1.92v-.67l.31-4.23v-10.19c0-.44.05-.77.15-.99.1-.22.22-.51.35-.86-.2-.18-.3-.48-.3-.93v-3.18l.46-1.59v-4.5l.1-.53v.4c0,.09.03.05.1-.13,0-.18-.04-.3-.1-.4-.06-.09-.1-.31-.1-.66l.2-5.69-.2-3.17c.2-.7.38-1.21.52-1.52.14-.31.21-.95.21-1.92v-.4l.2-2.78c0-.35-.03-.58-.1-.66-.07-.09-.1-.31-.1-.66l.2-.53-.2-.66c0-.18.03-.31.1-.4.07-.09.1-.31.1-.66v-4.5l-.2-1.85c0-.35.03-.55.1-.59.07-.04.1-.29.1-.73l-.2-8.2-.31-8.86c0-.53-.07-.8-.2-.8s-.2-.18-.2-.53v-3.17c.13-.53.16-1.1.1-1.72-.06-.62-.15-1.1-.25-1.46,0-.35.03-.57.08-.66.05-.09.08-.31.08-.66v-.66c.26-.32.56-.48.89-.48s.76.29,1.29.86c.53.57,1.06,1.23,1.58,1.98.53.75,1.04,1.48,1.54,2.18.49.71.87,1.24,1.14,1.59.4.35.78.8,1.14,1.32.37.53.71,1.06,1.04,1.59l3.07,4.36Z"/>
</svg>