<?xml version="1.0" encoding="UTF-8"?>
<svg id="Layer_1" xmlns="http://www.w3.org/2000/svg" version="1.1" viewBox="0 0 700 700">
  <!-- Generator: Adobe Illustrator 29.8.4, SVG Export Plug-In . SVG Version: 2.1.1 Build 6)  -->
  <defs>
    <style>
      .st0 {
        fill: #769a3d;
      }
    </style>
  </defs>
  <path class="st0" d="M431.93,491.7c1.31,0,1.85.28,1.64.88-.19.56.1.87,1,.87,1.73,1.74,2.72,2.35,2.95,1.74.22-.56.32,0,.32,1.76h-1.31v3.53h1.31c1.75,0,2.64.87,2.64,2.61,0,1.19-.22,1.77-.66,1.77s-.68.58-.68,1.75l5.93,11.43-1.97,1.76h-2.62v1.74h2.62l-1.33,4.38,1.33,1.78,1.97,5.27v2.62c0,1.19-.45,1.76-1.34,1.76h-.64v3.55l1.97,6.11c0,1.77.21,3.24.64,4.4.43,1.17.65,2.93.65,5.29l1.32-2.65v7.91c1.29,1.17,1.53,1.47.65.89-.88-.6-.2-.32,1.98.85v1.78c.89,1.16,1.22,1.63,1,1.32-.23-.3.1.71.99,3.04v3.55h1.29v6.11c-.86,0-1.42.33-1.64.91-.21.56-.75.86-1.63.86h-5.23c-.89-4.07-2.21-6.99-3.96-8.79-1.75-1.74-3.28-4.08-4.58-7-1.74-1.78-3.39-4.09-4.92-7.03-1.55-2.95-3.4-4.96-5.58-6.14v-1.77h-2.61v-3.51c-1.32,0-2.75-1.6-4.29-4.81-1.53-3.25-3.39-4.84-5.57-4.84v-4.38h-1.32v-1.77c-1.76-1.17-3.5-3.37-5.26-6.58-1.75-3.21-3.5-5.41-5.25-6.58,0-1.18-.42-2.48-1.3-3.94-.87-1.48-1.76-2.8-2.63-3.97-.89-1.18-1.85-2.64-2.97-4.38-1.09-1.77-2.08-2.66-2.95-2.66v-2.61c-1.32-1.19-1.52-1.47-.65-.9.88.61.65.29-.67-.85-.87-1.2-1.42-2.06-1.64-2.63-.22-.61-.77-1.47-1.64-2.64v-1.75c-.87-1.16-1.64-2.48-2.29-3.96-.65-1.44-1.65-2.74-2.97-3.96v-1.73h-1.3v-4.39c-2.18,0-3.29-1.17-3.29-3.52-1.32-1.18-1.53-1.45-.67-.88.9.61.67.32-.64-.86v-1.74c-1.31-1.21-1.75-1.64-1.31-1.33.44.28,0-.76-1.31-3.09v-1.75l-2.63-1.75-1.97-1.75v-4.38c-.88,0-1.11.15-.66.44.45.28.66-.44.66-2.22-2.2-1.17-3.4-2.49-3.61-3.96-.22-1.45-1.44-3.34-3.62-5.67v-3.51c-.87,0-1.22-.44-.99-1.33.22-.88-.33-1.89-1.63-3.07,0-1.18-.22-2.34-.66-3.51-.44-1.19-1.1-1.77-1.97-1.77l-5.26,7.02c-1.29,1.77-2.61,3.37-3.92,4.84-1.34,1.46-2.2,2.49-2.64,3.1-1.74,2.91-3.7,5.55-5.9,7.86h-.65c-.43,0-1.09.61-1.96,1.79-.88,1.16-1.22,1.88-1.01,2.18.22.28-.33,1.04-1.62,2.21v3.5l-3.28,1.75h-2.64c0,4.09-.22,6.01-.67,5.72-.43-.32-1.07.44-1.95,2.19-.87,1.75-1.53,2.64-1.98,2.64l-1.3,2.64c-1.32,2.33-2.53,4.24-3.62,5.68-1.1,1.48-1.64,3.68-1.64,6.61h-3.28c-.89,1.15-1.75,1.75-2.62,1.75v3.5c-.89,1.19-1.88,2.21-2.99,3.1-1.07.86-1.63,1.87-1.63,3.04-2.18,1.19-3.06,1.93-2.62,2.19.44.32,0,1.33-1.32,3.09-.88,1.15-1.96,2.31-3.26,3.49-.88,1.18-1.54,2.08-1.98,2.64-.45.58-1.11,1.77-1.98,3.53-2.18,1.17-3.73,1.76-4.59,1.76-.43.57-.77,1.16-.99,1.74-.2.58-.53,1.19-.97,1.76-.43,1.17-.65,2.06-.65,2.62,0,1.21-.55,2.37-1.66,3.55-1.09,1.15-2.08,1.73-2.94,1.73-.88,1.17-1.53,1.9-1.98,2.2-.44.32-1.09,1.02-1.96,2.19-.88,1.19-1.2,2.05-.99,2.64.22.57-.55.9-2.29.9-.88,2.92-2.3,4.97-4.26,6.13-1.98,1.18-3.41,3.51-4.28,7.03l-2.63,1.75c0,2.35-.76,3.96-2.29,4.83-1.54.88-3.18,1.32-4.93,1.32,0,2.32-.88,3.49-2.61,3.49,0,2.37-.66,4.27-1.97,5.7-1.32,1.5-2.64,2.24-3.94,2.24-3.07,1.75-4.27,3.48-3.61,5.26.65,1.78-.55,2.6-3.61,2.6l-1.31,3.54c-1.32,1.16-2.42,1.88-3.28,2.21-.89.28-1.32,1.6-1.32,3.93-1.32,0-2.08.29-2.3.89-.21.56-.77,1.47-1.65,2.63v1.75c-1.32,1.16-2.09,1.61-2.31,1.31-.21-.27-.32.76-.32,3.07-1.76,1.19-2.62,2.05-2.62,2.65s-.66.87-1.96.87c-.89,1.76-3.07,3.94-6.58,6.59-3.5,2.65-5.69,5.4-6.55,8.34h-2.63c-.88,0-1.96,1.6-3.28,4.82-1.33,3.25-3.51,5.42-6.56,6.57,0,2.94-1.09,4.4-3.28,4.4-.89,1.8-1.89,2.8-2.97,3.09-1.1.3-2.3,1.01-3.61,2.19-.87,2.35-1.31,4.09-1.31,5.27,0,.58-1.11,1.47-3.29,2.64v-1.77h-2.62l-1.32-1.74h-1.96c0-2.95-.22-4.23-.65-3.96-.44.32-.66-.43-.66-2.19v-3.53c0-.57-.43-2.02-1.31-4.4l-1.31-3.47v-6.17l-1.31-5.25v-1.76c-1.75-2.33-3.4-5.12-4.93-8.37-1.53-3.18-2.29-6.28-2.29-9.2,0-1.18.21-1.75.65-1.75h.65c0-1.16-.2-2.22-.65-3.08-.44-.88-.65-1.91-.65-3.09,0-1.77-.79-3.21-2.32-4.38-1.52-1.19-2.28-2.66-2.28-4.38,0-2.35-.23-3.83-.65-4.39-.44-.6-.66-1.75-.66-3.55v-1.76c0-1.15.22-1.58.66-1.28.43.31.65-.73.65-3.1,2.18,0,3.49-.27,3.95-.85.42-.6,1.08-.89,1.95-.89h1.31c.88,0,3.51-2.2,7.88-6.57,4.37-4.4,7.01-7.19,7.88-8.37.87-1.17,1.74-2.66,2.64-4.4,2.19-1.16,3.72-2.33,4.58-3.48,1.32-1.78,2.64-2.93,3.94-3.53,1.32-.58,2.4-2.03,3.29-4.39.87-1.17,2.52-3.04,4.91-5.71,2.41-2.61,4.05-4.53,4.93-5.69,2.63-1.76,4.59-3.52,5.92-5.29,1.31-2.35,1.97-3.81,1.97-4.37,0-1.18.65-1.76,1.96-1.76.88-1.15,1.75-2.33,2.63-3.51.88-1.16,1.97-1.77,3.29-1.77,0-1.16.54-2.18,1.63-3.04,1.09-.89,2.08-1.92,2.96-3.1.88-1.76,1.31-2.33,1.31-1.76l1.32-1.74c.88,0,1.32-.3,1.32-.87,0-.6.44-.88,1.31-.88.88-2.36,1.65-3.96,2.3-4.84.65-.86,1.42-1.87,2.29-3.09,2.64-1.73,3.95-3.78,3.95-6.13h3.28c0-1.17.21-2.34.67-3.52.42-1.18,1.08-1.74,1.96-1.74h4.6v-1.74l-1.97,1.74-1.3-1.74c.87-1.21,2.07-2.5,3.6-3.97,1.54-1.44,2.31-2.79,2.31-3.96l2.64,1.75v-3.5l4.6-6.17h1.29v-3.5c1.32-1.14,3.29-3.8,5.92-7.89,2.62-4.11,4.37-6.74,5.25-7.92l4.6-1.74c0-1.77.54-3.49,1.64-5.26,1.08-1.77,2.51-2.65,4.26-2.65v-3.52c1.32-1.18,2.09-1.59,2.3-1.34.23.33.32-.39.32-2.18h2.63v1.79l3.28-3.54-1.3-4.38c1.76,0,2.62-1.17,2.62-3.52h2.64c0-2.95.87-5.25,2.63-7.03,1.74-1.77,3.26-3.22,4.57-4.39v-1.75c1.76-1.18,2.31-1.92,1.63-2.19-.64-.3-.09-.44,1.66-.44v-1.74c1.31-1.18,1.31-1.77,0-1.77h1.33v-3.53c.87,0,1.83-.72,2.95-2.18,1.08-1.44,2.07-2.2,2.95-2.2,0-1.16.21-2.34.67-3.49.43-1.16,1.09-1.77,1.95-1.77.89-2.33,2.19-4.54,3.94-6.58,1.75-2.05,3.3-3.66,4.6-4.85,0-2.33.22-3.36.65-3.06.44.31.67-.15.67-1.31s-.22-1.74-.67-1.74-.65-.62-.65-1.77c0-1.75-.22-2.63-.64-2.63-.45,0-.66-1.19-.66-3.54h-1.32v-3.49c-1.75-1.18-2.09-1.47-.99-.9,1.08.61.76.3-.99-.86v-3.52h-1.3v-4.4h-1.32v-1.78h-1.32c0-2.91-.86-5.55-2.62-7.88v-5.26h-1.96v-4.38c-.87,0-1.98-1.61-3.29-4.85-1.31-3.19-1.97-5.39-1.97-6.56v-3.52h-1.98v-3.51h-1.31c0-2.92-.86-4.38-2.62-4.38v-3.53c0-1.17-.21-1.77-.66-1.77s-.66-.58-.66-1.75v-2.61c0-.6-.21-1.2-.64-1.78h-.66v-3.52h-1.97v-4.38h-1.33v-3.52h-1.3v-1.73h-1.33v-3.55h-1.3v-6.14c-1.76-1.18-2.1-1.44-.98-.87,1.09.6.77.29-1-.88v-1.77c0-1.76-.45-2.63-1.32-2.63v-3.51h-1.31v-3.52h-1.3v-4.39h-1.32v-5.26c0-1.18-.43-1.77-1.33-1.77v-4.39l-3.27-1.75v-1.77l-1.3-1.73c0-4.11-.89-7.34-2.62-9.69,0-1.74-.45-3.78-1.34-6.14-.86-2.33-1.96-4.1-3.28-5.26v-4.39c0-1.16-.43-2.93-1.32-5.28l-1.3-3.5v-2.66h-1.32c0-2.91-.33-4.08-.99-3.47-.66.56-.98,0-.98-1.76s-.22-2.93-.67-3.53c-.42-.57-1.08-1.46-1.96-2.61v-3.51h-1.29v-9.66h-1.34v-1.76h-1.3v-6.14l-1.96,2.62-1.33-9.65-1.31-2.64v-3.51c0-1.74.89-3.07,2.64-3.95,1.75-.88,3.26-1.32,4.6-1.32v-2.64c.86,0,1.29-.27,1.29-.88,0-.56.46-.86,1.32-.86,2.18,0,3.94,1.32,5.24,3.93,1.33,2.65,2.41,4.57,3.29,5.72v1.76l-2.63,1.75v2.64h1.32c0,6.43,1.53,9.65,4.61,9.65v5.28h3.92v-9.67c1.75-1.17,2.74-1.59,2.94-1.28.23.27.78-.47,1.65-2.24v-13.16l5.25,3.53v1.74c1.76,1.15,2.3,1.46,1.64.86-.64-.57-.54-.27.34.9v4.39c0,1.17.21,1.74.65,1.74s.65.62.65,1.77v1.75c0,1.17.46,2.51,1.33,3.98.88,1.46,1.3,2.75,1.3,3.93v3.5c.89,0,1.64.74,2.3,2.19.64,1.47,1,2.78,1,3.95v1.78l1.29,3.51v4.39l1.32-1.78v5.3l1.31-1.76v5.24l1.31,3.55c.89,2.31,1.31,3.79,1.31,4.39.88,1.16,1.65,2.5,2.3,3.95.65,1.45,1.42,2.18,2.3,2.18v3.52c.88,1.18,1.86,3.07,2.95,5.71,1.09,2.64,1.64,4.52,1.64,5.71,2.19,0,3.06.27,2.62.87-.43.58,0,.88,1.32.88v6.16c1.32,1.14,1.52,1.46.67.86-.9-.56-.24-.3,1.95.87v3.52-1.75c.87,1.18,1.75,2.92,2.63,5.27.45,1.75.67,3.2.67,4.4.87,1.73,1.52,2.9,1.95,3.5.44.58,1.11,2.04,1.99,4.39.86,1.18,1.63,2.8,2.28,4.83.65,2.04,1,3.66,1,4.82.87,1.17,1.29,1.17,1.29,0s.45-.56,1.33,1.77c.88,1.74,1.19,2.48.97,2.18-.23-.29.33.13,1.64,1.31v9.67c2.2,1.76,3.18,3.23,2.96,4.38-.22,1.19.77,2.34,2.94,3.52v3.52h2.64c1.31,0,1.96-.6,1.96-1.76v3.54c0,1.14-.43,2.31-1.29,3.47l-.67.89c0,1.2.2,2.03.67,2.64.42.59.86.87,1.29.87l1.32-3.51-1.32,1.77v-6.13c.88,1.14,1.75,2.76,2.63,4.81.88,2.06,1.31,3.66,1.31,4.85v1.73c1.76,1.18,2.09,1.62,1,1.33-1.11-.29-1,.15.32,1.32,1.76,3.51,2.84,5.26,3.28,5.26v3.51c.88,1.74,1.74,2.63,2.62,2.63s1.43-1.01,1.65-3.07c.21-2.06,1.2-3.07,2.97-3.07,0-3.51.86-5.26,2.6-5.26v-2.65c0,.57.45-.57,1.34-3.52,1.74-2.31,3.26-4.09,4.59-5.26,1.31-2.33,2.4-4.26,3.26-5.7.9-1.48,2.2-2.21,3.96-2.21v-4.38c1.74-2.34,2.62-4.08,2.62-5.25,1.32-1.18,2.74-3.37,4.27-6.59,1.52-3.21,2.94-5.44,4.27-6.6v-2.63l2.62-1.77v-3.52h1.98v-1.74c1.32-1.17,2.18-2.78,2.62-4.84.45-2.06,1.32-3.05,2.62-3.05v-3.52c1.75-1.16,2.2-1.61,1.32-1.33-.87.3-.87-.72.02-3.06l1.96-1.75c.88,0,1.3-.61,1.3-1.77v-3.51h1.33v-2.64c1.3,0,1.95-.27,1.95-.86s.87-1.47,2.63-2.63v-1.78h1.32v-6.14h1.3v-1.76l1.98-1.74,1.98-1.75c0-2.93.75-5.14,2.29-6.6,1.53-1.46,2.74-3.07,3.6-4.84h1.32v-4.39c.89-1.16,1.41-2.03,1.63-2.61.22-.57.78-1.47,1.65-2.63v-3.53c1.32-1.17,1.85-1.31,1.63-.43-.21.88-.31.16-.31-2.18h1.3l1.31-5.29,3.29-1.74v-4.4l1.31-1.74v-1.76c2.19-1.18,2.83-1.75,1.98-1.75s-.68-.58.66-1.76c0-2.36.96-4.84,2.94-7.45,1.96-2.63,2.95-5.41,2.95-8.35h1.32c0-1.74.54-3.79,1.64-6.14,1.09-2.34,2.09-4.1,2.97-5.28.86-2.34,1.73-3.52,2.62-3.52v-4.37h1.32v-3.54l1.3,1.77v-3.52h1.32v-1.75l1.97-2.64v-3.52h1.31v-3.5h1.32v-4.39h1.29v-1.77c.89-1.16,1.35-1.45,1.35-.86v-4.39c0-2.36.2-3.24.64-2.63.43.56.65-.6.65-3.51h1.98c0-1.77.45-2.95,1.31-3.52.88-.61,1.32-2.04,1.32-4.4v-1.77h1.32v-1.74c.88-1.75,1.09-2.49.66-2.19-.45.29-.23-.15.63-1.31v-4.41h1.99v-1.77c0-1.14.43-1.74,1.32-1.74,0-4.09.86-7.31,2.62-9.65v-1.77c0-1.15.22-1.44.63-.88.46.58.69.3.69-.88v-4.38c0-5.86.86-9.68,2.61-11.43,1.75-1.74,3.71-4.07,5.92-7.03l3.28,1.75c0-.58.43.59,1.32,3.53.86,1.18,1.52,2.49,1.95,3.95.43,1.47,1.1,2.19,1.98,2.19v1.76c0,1.75.31,2.46.97,2.2.66-.3,1,.12,1,1.29v4.41c1.3,0,2.52,1.92,3.61,5.7,1.09,3.8,3.17,6.3,6.24,7.46v3.5h1.3v7.93c1.76,0,2.64.58,2.64,1.75h1.96v6.14h1.31c0,2.93.33,4.69.99,5.28.65.59,1.63,1.74,2.95,3.51,0,2.32.55,4.24,1.65,5.7,1.1,1.47,2.08,2.79,2.94,3.96h-1.31v6.14c-1.76,1.18-2.41,1.75-1.96,1.75.86,0,.43.61-1.32,1.77v1.75h-1.32v4.39h-1.3v5.29c-1.32,0-1.98.59-1.98,1.74,0,.59-.87,1.47-2.62,2.63v3.52h-1.32v1.77c-.86,1.17-2.08,3.21-3.6,6.11-1.54,2.95-2.31,5.3-2.31,7.05h-1.29v2.64c-1.32,1.17-1.98,2.04-1.98,2.63s-.63,1.46-1.97,2.63v6.15l-1.31-1.76v3.52h-1.96v3.5l-1.31-1.74v3.49h-1.32v7.91l-1.3-1.74v3.51c-1.76,0-2.64,1.47-2.64,4.39l-1.96-1.78v5.3c-1.32,1.16-1.43,1.45-.33.86,1.07-.57.76-.3-.99.87l-1.31,7.9-1.32-3.5v7.02l-1.29-1.74v1.74h-1.99c0,2.92-.1,4.1-.33,3.52-.21-.6-.96.3-2.29,2.63-.89,1.16-1.11,1.91-.66,2.2.44.28.22,1.31-.66,3.05-1.29,1.18-1.85,1.61-1.64,1.33.23-.3-.11.71-.97,3.07-.9,1.19-1.42,2.04-1.65,2.61-.23.61-.76.9-1.63.9,0,1.16-.45,2.91-1.32,5.26-.89,2.34-1.75,4.38-2.63,6.15-1.74,3.52-3.72,6.14-5.9,7.91v1.76c-1.32,2.9-3.08,6.44-5.27,10.51-2.18,4.12-3.27,8.21-3.27,12.3l-1.33-1.75v1.75h-1.29v6.17c-2.2,1.17-2.85,1.46-1.98.86.89-.57.43-.28-1.33.9v3.49h-1.29v1.76c-.89,1.17-2.96,4.26-6.24,9.23-3.28,4.96-4.92,8.32-4.92,10.11v1.73c0,2.35-.44,3.52-1.31,3.52-.43,0-1.08.88-1.98,2.64h-2.62v3.52c0-.6-.43,0-1.32,1.74h-1.98v4.38c-1.3,1.16-1.75,1.74-1.3,1.74s0,.6-1.32,1.79l-1.29,1.75c0-.59-.46.28-1.32,2.63-.89,1.76-1.23,2.79-1,3.05.2.3-.53,1.05-2.29,2.21-.88,1.16-1.55,1.92-1.98,2.21-.43.28-.66,1.59-.66,3.93l-1.32,1.75c.44,0,0,.6-1.3,1.73v3.56c0,1.16-.89,2.49-2.64,3.93-1.75,1.47-3.26,2.79-4.59,3.97v1.74c-1.75,0-2.52.44-2.29,1.31.23.88-.55,2.49-2.3,4.81v1.79c-1.3,1.77-1.76,2.48-1.3,2.19.43-.3,0,.15-1.32,1.33v3.51c0-.59-.44-.3-1.3.86v1.76c-3.5,1.76-5.59,4.41-6.25,7.9-.65,3.54-2.08,5.28-4.27,5.28,0,1.74-.43,2.66-1.32,2.66s-1.29,1.16-1.29,3.47c0,1.18.87,2.92,2.62,5.3v1.74c1.76,1.18,2.31,1.92,1.64,2.19-.67.3-.11,1.03,1.64,2.2v1.78l1.32,1.72v1.76h1.32v1.77h1.29v4.38l1.98-1.76v3.5c0,1.2.23,1.48.66.87.44-.58,1.08-.26,1.96.91v2.61c0,1.17.45,1.77,1.32,1.77.88,1.74,1.52,2.92,1.97,3.54.43.54.66,2.29.66,5.24v2.65c2.16,1.16,3.15,2.04,2.94,2.62-.22.58.77.87,2.95.87v5.28c2.18,2.34,3.61,5.43,4.27,9.22.66,3.81,2.08,6.58,4.27,8.33v-3.5h1.33v7.03c2.16,1.16,3.6,3.19,4.24,6.14.66,2.92,2.1,5.55,4.27,7.92l1.98,3.49c.89,1.18,1.75,2.51,2.62,3.97.88,1.45,1.31,2.76,1.31,3.93v3.52l3.29-1.76v-3.49h-1.96v-4.39h1.96c0,1.17.22,2.34.64,3.51.44,1.16.66,2.62.66,4.37v3.53l-1.31,2.64h-4.6ZM264.51,466.23h1.32v-1.75h-1.32v1.75ZM297.34,412.67h-1.3v1.75h1.3v-1.75ZM301.93,417.06h-3.26v3.54h3.26v-3.54ZM307.18,206.31c-1.31,0-2.4-1.31-3.27-3.95-.88-2.63-1.98-4.55-3.28-5.73l1.29,5.28c1.32,1.16,1.98,3.22,1.98,6.14s1.09,4.95,3.27,6.13v-7.88ZM324.92,251.97c0,3.51,1.32,6.14,3.94,7.91.88,1.74,2.08,4.84,3.6,9.19,1.52,4.43,2.29,7.79,2.29,10.13,1.33,1.14,2.53,3.95,3.62,8.35,1.08,4.4,3.17,6.56,6.23,6.56v6.17l2.64,3.51c1.31,0,1.96-.61,1.96-1.76-.87-.56-1.52-1.46-1.96-2.63-.88-1.2-1.32-2.34-1.32-3.5v-1.79c0-1.16-.43-2.31-1.33-3.51v-1.75l-1.29-2.61v-1.78h-1.32l-1.31-5.26h-1.99v-4.4c-.87-1.15-2.29-4.09-4.25-8.79-1.99-4.65-3.41-8.2-4.27-10.52-.88-1.77-1.54-3.25-1.99-4.41-.43-1.15-1.08-2.62-1.95-4.39-.88-1.15-1.22-1.6-.99-1.33.2.32-.56-.71-2.31-3.06,0-2.32-.88-3.49-2.62-3.49v3.49h1.32c0,4.12.3,6.01.98,5.72.65-.29,1.43,1.01,2.3,3.96M336.09,332.75v3.49c.88,0,1.63,1.06,2.28,3.1.66,2.04,1.44,3.07,2.32,3.07s1.31-.27,1.31-.88c0-1.18.44-1.73,1.32-1.73-.88-2.35-1.76-4.12-2.62-5.3-.88-2.34-1.65-3.35-2.32-3.06-.65.3-.98-.75-.98-3.08v-3.5c-.88-1.19-1.64-3.07-2.31-5.71-.63-2.66-1.85-3.97-3.59-3.97,0,1.79.53,3.54,1.64,5.29,1.09,1.75,1.62,3.2,1.62,4.39v5.26h1.33v2.64ZM353.14,313.43c-.87-1.17-1.31-1.47-1.31-.88v-3.51c-.89,0-1.21-.3-.98-.88.21-.6-.33-1.47-1.66-2.64v9.64c1.32,1.18,1.75,2.22,1.32,3.09-.44.88.43,1.89,2.62,3.07,0,1.17-.23,1.47-.64.88-.44-.58-.23-.88.64-.88h1.32l-1.32-7.91ZM380.72,439.9c0,2.31.88,4.08,2.62,5.26v1.77c.88,0,1.75.83,2.61,2.59.9,1.8,1.32,3.52,1.32,5.27h3.28v2.65c0-.56.45-.3,1.32.88v2.64l1.32,3.5h4.59c0-2.95-.78-4.82-2.31-5.71-1.52-.88-2.74-2.79-3.6-5.71v1.75c-.87-2.32-2.41-3.5-4.6-3.5v-4.36l-2.62-1.77c.87-1.76.87-2.06,0-.89-.88,1.18-1.32.31-1.32-2.63l-2.62-1.75ZM396.48,449.53h-1.98v1.75h1.98v-1.75ZM397.8,458.33h.64l.66-1.74v-.88c0,.56-.44.27-1.3-.9h-1.32l1.32,3.53ZM400.43,470.65c.88,1.15,1.41,2.03,1.63,2.61.22.61,1.21.88,2.97.88v-1.74h-3.3v-1.74h-1.3ZM412.24,321.34l1.32-2.63h-1.32v2.63ZM430.62,290.59h-1.32v1.77h1.32v-1.77ZM433.24,504.87v-4.38h3.29v2.61l-3.29,1.77Z"/>
</svg>